<mxfile host="app.diagrams.net" modified="2023-07-07T12:49:48.776Z" agent="Mozilla/5.0 (Windows NT 10.0; Win64; x64) AppleWebKit/537.36 (KHTML, like Gecko) Chrome/114.0.0.0 Safari/537.36" etag="_GJyxaqLrxD1cCrHgxwC" version="21.6.1" type="device">
  <diagram name="Halaman-1" id="Hk8B9aRhM-HkEaq8QBFT">
    <mxGraphModel dx="4518" dy="2232" grid="1" gridSize="10" guides="1" tooltips="1" connect="1" arrows="1" fold="1" page="1" pageScale="1" pageWidth="827" pageHeight="1169" math="0" shadow="0">
      <root>
        <mxCell id="0" />
        <mxCell id="1" parent="0" />
        <mxCell id="xsAymr13rpvqr5HbZTiS-5" value="" style="edgeStyle=orthogonalEdgeStyle;rounded=0;orthogonalLoop=1;jettySize=auto;html=1;" edge="1" parent="1" source="xsAymr13rpvqr5HbZTiS-2" target="xsAymr13rpvqr5HbZTiS-4">
          <mxGeometry relative="1" as="geometry" />
        </mxCell>
        <mxCell id="xsAymr13rpvqr5HbZTiS-2" value="&lt;font style=&quot;&quot;&gt;&lt;b style=&quot;&quot;&gt;&lt;font style=&quot;font-size: 23px;&quot;&gt;main();&lt;/font&gt;&lt;br&gt;&lt;/b&gt;&lt;/font&gt;" style="rounded=1;whiteSpace=wrap;html=1;" vertex="1" parent="1">
          <mxGeometry x="140" y="-160" width="120" height="60" as="geometry" />
        </mxCell>
        <mxCell id="xsAymr13rpvqr5HbZTiS-8" style="edgeStyle=orthogonalEdgeStyle;rounded=0;orthogonalLoop=1;jettySize=auto;html=1;entryX=0.5;entryY=0;entryDx=0;entryDy=0;" edge="1" parent="1" source="xsAymr13rpvqr5HbZTiS-4" target="xsAymr13rpvqr5HbZTiS-6">
          <mxGeometry relative="1" as="geometry" />
        </mxCell>
        <mxCell id="xsAymr13rpvqr5HbZTiS-41" style="edgeStyle=orthogonalEdgeStyle;rounded=0;orthogonalLoop=1;jettySize=auto;html=1;entryX=0.5;entryY=0;entryDx=0;entryDy=0;" edge="1" parent="1" source="xsAymr13rpvqr5HbZTiS-4" target="xsAymr13rpvqr5HbZTiS-7">
          <mxGeometry relative="1" as="geometry">
            <Array as="points">
              <mxPoint x="370" />
            </Array>
          </mxGeometry>
        </mxCell>
        <mxCell id="xsAymr13rpvqr5HbZTiS-4" value="&lt;font style=&quot;font-size: 20px;&quot;&gt;&lt;b&gt;loginScreen;&lt;/b&gt;&lt;/font&gt;" style="whiteSpace=wrap;html=1;rounded=1;" vertex="1" parent="1">
          <mxGeometry x="120" y="-30" width="160" height="60" as="geometry" />
        </mxCell>
        <mxCell id="xsAymr13rpvqr5HbZTiS-16" style="edgeStyle=orthogonalEdgeStyle;rounded=0;orthogonalLoop=1;jettySize=auto;html=1;entryX=0.5;entryY=0;entryDx=0;entryDy=0;" edge="1" parent="1" source="xsAymr13rpvqr5HbZTiS-6" target="xsAymr13rpvqr5HbZTiS-15">
          <mxGeometry relative="1" as="geometry" />
        </mxCell>
        <mxCell id="xsAymr13rpvqr5HbZTiS-6" value="&lt;font style=&quot;font-size: 20px;&quot;&gt;&lt;b&gt;login();&lt;/b&gt;&lt;/font&gt;" style="whiteSpace=wrap;html=1;rounded=1;" vertex="1" parent="1">
          <mxGeometry x="120" y="130" width="160" height="60" as="geometry" />
        </mxCell>
        <mxCell id="xsAymr13rpvqr5HbZTiS-14" style="edgeStyle=orthogonalEdgeStyle;rounded=0;orthogonalLoop=1;jettySize=auto;html=1;entryX=1;entryY=0.5;entryDx=0;entryDy=0;" edge="1" parent="1" source="xsAymr13rpvqr5HbZTiS-7" target="xsAymr13rpvqr5HbZTiS-6">
          <mxGeometry relative="1" as="geometry" />
        </mxCell>
        <mxCell id="xsAymr13rpvqr5HbZTiS-7" value="&lt;font style=&quot;font-size: 20px;&quot;&gt;&lt;b&gt;createAccountMember();&lt;/b&gt;&lt;/font&gt;" style="whiteSpace=wrap;html=1;rounded=1;" vertex="1" parent="1">
          <mxGeometry x="240" y="50" width="260" height="60" as="geometry" />
        </mxCell>
        <mxCell id="xsAymr13rpvqr5HbZTiS-32" style="edgeStyle=orthogonalEdgeStyle;rounded=0;orthogonalLoop=1;jettySize=auto;html=1;entryX=0.5;entryY=0;entryDx=0;entryDy=0;" edge="1" parent="1" source="xsAymr13rpvqr5HbZTiS-15" target="xsAymr13rpvqr5HbZTiS-19">
          <mxGeometry relative="1" as="geometry" />
        </mxCell>
        <mxCell id="xsAymr13rpvqr5HbZTiS-33" style="edgeStyle=orthogonalEdgeStyle;rounded=0;orthogonalLoop=1;jettySize=auto;html=1;entryX=0;entryY=0.5;entryDx=0;entryDy=0;" edge="1" parent="1" source="xsAymr13rpvqr5HbZTiS-15" target="xsAymr13rpvqr5HbZTiS-18">
          <mxGeometry relative="1" as="geometry" />
        </mxCell>
        <mxCell id="xsAymr13rpvqr5HbZTiS-15" value="&lt;font style=&quot;font-size: 20px;&quot;&gt;&lt;b&gt;Pengecekan Role&lt;/b&gt;&lt;/font&gt;" style="rhombus;whiteSpace=wrap;html=1;" vertex="1" parent="1">
          <mxGeometry x="160" y="330" width="80" height="80" as="geometry" />
        </mxCell>
        <mxCell id="xsAymr13rpvqr5HbZTiS-51" style="edgeStyle=orthogonalEdgeStyle;rounded=0;orthogonalLoop=1;jettySize=auto;html=1;" edge="1" parent="1" source="xsAymr13rpvqr5HbZTiS-18" target="xsAymr13rpvqr5HbZTiS-43">
          <mxGeometry relative="1" as="geometry" />
        </mxCell>
        <mxCell id="xsAymr13rpvqr5HbZTiS-54" style="edgeStyle=orthogonalEdgeStyle;rounded=0;orthogonalLoop=1;jettySize=auto;html=1;" edge="1" parent="1" source="xsAymr13rpvqr5HbZTiS-18" target="xsAymr13rpvqr5HbZTiS-44">
          <mxGeometry relative="1" as="geometry">
            <Array as="points">
              <mxPoint x="1310" y="80" />
            </Array>
          </mxGeometry>
        </mxCell>
        <mxCell id="xsAymr13rpvqr5HbZTiS-59" style="edgeStyle=orthogonalEdgeStyle;rounded=0;orthogonalLoop=1;jettySize=auto;html=1;" edge="1" parent="1" source="xsAymr13rpvqr5HbZTiS-18" target="xsAymr13rpvqr5HbZTiS-36">
          <mxGeometry relative="1" as="geometry">
            <Array as="points">
              <mxPoint x="1010" y="-280" />
              <mxPoint x="-1390" y="-280" />
            </Array>
          </mxGeometry>
        </mxCell>
        <mxCell id="xsAymr13rpvqr5HbZTiS-18" value="&lt;span style=&quot;font-size: 20px;&quot;&gt;&lt;b&gt;dashboardAdmin();&lt;/b&gt;&lt;/span&gt;" style="whiteSpace=wrap;html=1;rounded=1;" vertex="1" parent="1">
          <mxGeometry x="900" y="50" width="220" height="60" as="geometry" />
        </mxCell>
        <mxCell id="xsAymr13rpvqr5HbZTiS-38" style="edgeStyle=orthogonalEdgeStyle;rounded=0;orthogonalLoop=1;jettySize=auto;html=1;" edge="1" parent="1" source="xsAymr13rpvqr5HbZTiS-19" target="xsAymr13rpvqr5HbZTiS-35">
          <mxGeometry relative="1" as="geometry" />
        </mxCell>
        <mxCell id="xsAymr13rpvqr5HbZTiS-39" style="edgeStyle=orthogonalEdgeStyle;rounded=0;orthogonalLoop=1;jettySize=auto;html=1;" edge="1" parent="1" source="xsAymr13rpvqr5HbZTiS-19" target="xsAymr13rpvqr5HbZTiS-36">
          <mxGeometry relative="1" as="geometry" />
        </mxCell>
        <mxCell id="xsAymr13rpvqr5HbZTiS-56" style="edgeStyle=orthogonalEdgeStyle;rounded=0;orthogonalLoop=1;jettySize=auto;html=1;entryX=0.5;entryY=0;entryDx=0;entryDy=0;" edge="1" parent="1" source="xsAymr13rpvqr5HbZTiS-19" target="xsAymr13rpvqr5HbZTiS-55">
          <mxGeometry relative="1" as="geometry" />
        </mxCell>
        <mxCell id="xsAymr13rpvqr5HbZTiS-57" style="edgeStyle=orthogonalEdgeStyle;rounded=0;orthogonalLoop=1;jettySize=auto;html=1;" edge="1" parent="1" source="xsAymr13rpvqr5HbZTiS-19" target="xsAymr13rpvqr5HbZTiS-34">
          <mxGeometry relative="1" as="geometry" />
        </mxCell>
        <mxCell id="xsAymr13rpvqr5HbZTiS-19" value="&lt;span style=&quot;font-size: 20px;&quot;&gt;&lt;b&gt;dashboardMember();&lt;/b&gt;&lt;/span&gt;" style="whiteSpace=wrap;html=1;rounded=1;" vertex="1" parent="1">
          <mxGeometry x="-710" y="120" width="220" height="60" as="geometry" />
        </mxCell>
        <mxCell id="xsAymr13rpvqr5HbZTiS-69" style="edgeStyle=orthogonalEdgeStyle;rounded=0;orthogonalLoop=1;jettySize=auto;html=1;entryX=0.5;entryY=0;entryDx=0;entryDy=0;" edge="1" parent="1" source="xsAymr13rpvqr5HbZTiS-34" target="xsAymr13rpvqr5HbZTiS-68">
          <mxGeometry relative="1" as="geometry" />
        </mxCell>
        <mxCell id="xsAymr13rpvqr5HbZTiS-34" value="&lt;span style=&quot;font-size: 20px;&quot;&gt;&lt;b&gt;pinjamBuku();&lt;/b&gt;&lt;/span&gt;" style="whiteSpace=wrap;html=1;rounded=1;" vertex="1" parent="1">
          <mxGeometry x="-1000" y="240" width="220" height="60" as="geometry" />
        </mxCell>
        <mxCell id="xsAymr13rpvqr5HbZTiS-35" value="&lt;span style=&quot;font-size: 20px;&quot;&gt;&lt;b&gt;kembalikanBuku();&lt;/b&gt;&lt;/span&gt;" style="whiteSpace=wrap;html=1;rounded=1;" vertex="1" parent="1">
          <mxGeometry x="-710" y="240" width="220" height="60" as="geometry" />
        </mxCell>
        <mxCell id="xsAymr13rpvqr5HbZTiS-63" style="edgeStyle=orthogonalEdgeStyle;rounded=0;orthogonalLoop=1;jettySize=auto;html=1;entryX=0.5;entryY=0;entryDx=0;entryDy=0;" edge="1" parent="1" source="xsAymr13rpvqr5HbZTiS-36" target="xsAymr13rpvqr5HbZTiS-61">
          <mxGeometry relative="1" as="geometry" />
        </mxCell>
        <mxCell id="xsAymr13rpvqr5HbZTiS-67" style="edgeStyle=orthogonalEdgeStyle;rounded=0;orthogonalLoop=1;jettySize=auto;html=1;entryX=0.5;entryY=0;entryDx=0;entryDy=0;" edge="1" parent="1" source="xsAymr13rpvqr5HbZTiS-36" target="xsAymr13rpvqr5HbZTiS-60">
          <mxGeometry relative="1" as="geometry">
            <Array as="points">
              <mxPoint x="-1170" y="270" />
            </Array>
          </mxGeometry>
        </mxCell>
        <mxCell id="xsAymr13rpvqr5HbZTiS-36" value="&lt;span style=&quot;font-size: 20px;&quot;&gt;&lt;b&gt;daftarBuku();&lt;/b&gt;&lt;/span&gt;" style="whiteSpace=wrap;html=1;rounded=1;" vertex="1" parent="1">
          <mxGeometry x="-1500" y="240" width="220" height="60" as="geometry" />
        </mxCell>
        <mxCell id="xsAymr13rpvqr5HbZTiS-48" style="edgeStyle=orthogonalEdgeStyle;rounded=0;orthogonalLoop=1;jettySize=auto;html=1;entryX=0.5;entryY=0;entryDx=0;entryDy=0;" edge="1" parent="1" source="xsAymr13rpvqr5HbZTiS-43" target="xsAymr13rpvqr5HbZTiS-46">
          <mxGeometry relative="1" as="geometry" />
        </mxCell>
        <mxCell id="xsAymr13rpvqr5HbZTiS-49" style="edgeStyle=orthogonalEdgeStyle;rounded=0;orthogonalLoop=1;jettySize=auto;html=1;entryX=0.5;entryY=0;entryDx=0;entryDy=0;" edge="1" parent="1" source="xsAymr13rpvqr5HbZTiS-43" target="xsAymr13rpvqr5HbZTiS-47">
          <mxGeometry relative="1" as="geometry" />
        </mxCell>
        <mxCell id="xsAymr13rpvqr5HbZTiS-43" value="&lt;span style=&quot;font-size: 20px;&quot;&gt;&lt;b&gt;managementBuku();&lt;/b&gt;&lt;/span&gt;" style="whiteSpace=wrap;html=1;rounded=1;" vertex="1" parent="1">
          <mxGeometry x="900" y="160" width="220" height="60" as="geometry" />
        </mxCell>
        <mxCell id="xsAymr13rpvqr5HbZTiS-44" value="&lt;span style=&quot;font-size: 20px;&quot;&gt;&lt;b&gt;statistik();&lt;/b&gt;&lt;/span&gt;" style="whiteSpace=wrap;html=1;rounded=1;" vertex="1" parent="1">
          <mxGeometry x="1200" y="160" width="220" height="60" as="geometry" />
        </mxCell>
        <mxCell id="xsAymr13rpvqr5HbZTiS-46" value="&lt;span style=&quot;font-size: 20px;&quot;&gt;&lt;b&gt;tambahBuku();&lt;/b&gt;&lt;/span&gt;" style="whiteSpace=wrap;html=1;rounded=1;" vertex="1" parent="1">
          <mxGeometry x="775" y="320" width="220" height="60" as="geometry" />
        </mxCell>
        <mxCell id="xsAymr13rpvqr5HbZTiS-47" value="&lt;span style=&quot;font-size: 20px;&quot;&gt;&lt;b&gt;hapusBuku();&lt;/b&gt;&lt;/span&gt;" style="whiteSpace=wrap;html=1;rounded=1;" vertex="1" parent="1">
          <mxGeometry x="1021" y="320" width="220" height="60" as="geometry" />
        </mxCell>
        <mxCell id="xsAymr13rpvqr5HbZTiS-55" value="&lt;span style=&quot;font-size: 20px;&quot;&gt;&lt;b&gt;informasiAkun();&lt;/b&gt;&lt;/span&gt;" style="whiteSpace=wrap;html=1;rounded=1;" vertex="1" parent="1">
          <mxGeometry x="-460" y="240" width="220" height="60" as="geometry" />
        </mxCell>
        <mxCell id="xsAymr13rpvqr5HbZTiS-60" value="&lt;span style=&quot;font-size: 20px;&quot;&gt;&lt;b&gt;sortingISBN();&lt;/b&gt;&lt;/span&gt;" style="whiteSpace=wrap;html=1;rounded=1;" vertex="1" parent="1">
          <mxGeometry x="-1320" y="490" width="220" height="60" as="geometry" />
        </mxCell>
        <mxCell id="xsAymr13rpvqr5HbZTiS-61" value="&lt;span style=&quot;font-size: 20px;&quot;&gt;&lt;b&gt;sortingKategori();&lt;/b&gt;&lt;/span&gt;" style="whiteSpace=wrap;html=1;rounded=1;" vertex="1" parent="1">
          <mxGeometry x="-1740" y="490" width="220" height="60" as="geometry" />
        </mxCell>
        <mxCell id="xsAymr13rpvqr5HbZTiS-68" value="&lt;span style=&quot;font-size: 20px;&quot;&gt;&lt;b&gt;daftarBuku();&lt;/b&gt;&lt;/span&gt;" style="whiteSpace=wrap;html=1;rounded=1;" vertex="1" parent="1">
          <mxGeometry x="-1000" y="380" width="220" height="60" as="geometry" />
        </mxCell>
      </root>
    </mxGraphModel>
  </diagram>
</mxfile>
